<?xml version="1.0" encoding="utf-8"?>
<!-- Generator: Adobe Illustrator 26.3.1, SVG Export Plug-In . SVG Version: 6.00 Build 0)  -->
<svg version="1.1" id="Layer_1" xmlns="http://www.w3.org/2000/svg" xmlns:xlink="http://www.w3.org/1999/xlink" x="0px" y="0px"
	 viewBox="0 0 400 844.1" style="enable-background:new 0 0 400 844.1;" xml:space="preserve">
<style type="text/css">
	.st0{fill:none;}
	.st1{fill:none;stroke:#000000;}
	.st2{fill:none;stroke:#D9D9D9;stroke-opacity:0.7;}
	.st3{fill:#C8C8C8;}
	.st4{fill:#780F49;}
	.st5{clip-path:url(#SVGID_00000011753822282953460940000003197004453399766934_);}
	.st6{fill:none;stroke:#464646;stroke-linecap:round;stroke-linejoin:round;}
	.st7{fill:none;stroke:#464646;}
	.st8{fill:#464646;}
	.st9{font-family:'Roboto-Regular';}
	.st10{font-size:16px;}
	.st11{clip-path:url(#SVGID_00000027563239609924091400000013330082996662195595_);}
	.st12{font-family:'Roboto-Bold';}
</style>
<g>
	<g>
		<line vector-effect="non-scaling-stroke" shape-rendering="auto" class="st0" x1="-693.5" y1="496" x2="-40" y2="496"/>
		<g>
			<line vector-effect="non-scaling-stroke" shape-rendering="auto" class="st1" x1="-693.5" y1="496" x2="-693.5" y2="496"/>
			<text transform="matrix(1 0 0 1 -697.479 512.9696)" class="st8 st9 st10">0</text>
		</g>
		<g>
			<line id="chart-group-2-axis-0-grid-1" class="st2" x1="-537.5" y1="496" x2="-537.5" y2="0"/>
			<line vector-effect="non-scaling-stroke" shape-rendering="auto" class="st1" x1="-537.5" y1="496" x2="-537.5" y2="496"/>
			<text transform="matrix(1 0 0 1 -546.2758 512.97)" class="st8 st9 st10">20</text>
		</g>
		<g>
			<line id="chart-group-2-axis-0-grid-2" class="st2" x1="-381.5" y1="496" x2="-381.5" y2="0"/>
			<line vector-effect="non-scaling-stroke" shape-rendering="auto" class="st1" x1="-381.5" y1="496" x2="-381.5" y2="496"/>
			<text transform="matrix(1 0 0 1 -390.281 512.97)" class="st8 st9 st10">40</text>
		</g>
		<g>
			<line id="chart-group-2-axis-0-grid-3" class="st2" x1="-225.5" y1="496" x2="-225.5" y2="0"/>
			<line vector-effect="non-scaling-stroke" shape-rendering="auto" class="st1" x1="-225.5" y1="496" x2="-225.5" y2="496"/>
			<text transform="matrix(1 0 0 1 -234.2862 512.97)" class="st8 st9 st10">60</text>
		</g>
		<g>
			<line id="chart-group-2-axis-0-grid-4" class="st2" x1="-69.5" y1="496" x2="-69.5" y2="0"/>
			<line vector-effect="non-scaling-stroke" shape-rendering="auto" class="st1" x1="-69.5" y1="496" x2="-69.5" y2="496"/>
			<text transform="matrix(1 0 0 1 -105.272 512.9694)" class="st8 st9 st10">80 hours</text>
		</g>
	</g>
</g>
<g>
	<g>
		<path shape-rendering="auto" class="st3" d="M-693.5,421.2L-693.5,421.2h411.9l0,0v57.1l0,0h-411.9l0,0V421.2z"/>
		<path shape-rendering="auto" class="st3" d="M-693.5,353.9L-693.5,353.9h435.7l0,0v57.1l0,0h-435.7l0,0V353.9z"/>
		<path shape-rendering="auto" class="st3" d="M-693.5,286.7L-693.5,286.7h467.3l0,0v57.1l0,0h-467.3l0,0V286.7z"/>
		<path shape-rendering="auto" class="st3" d="M-693.5,219.4L-693.5,219.4h491.1l0,0v57.1l0,0h-491.1l0,0V219.4z"/>
		<path shape-rendering="auto" class="st3" d="M-693.5,152.2L-693.5,152.2h506.9l0,0v57.1l0,0h-506.9l0,0V152.2z"/>
		<path shape-rendering="auto" class="st3" d="M-693.5,84.9L-693.5,84.9h594.1l0,0v57.1l0,0h-594.1l0,0V84.9z"/>
		<path shape-rendering="auto" class="st4" d="M-693.5,17.7L-693.5,17.7h633.7l0,0v57.1l0,0h-633.7l0,0V17.7z"/>
	</g>
</g>
<g>
	<g>
		<defs>
			<rect id="SVGID_1_" x="-693.5" y="0" width="653.5" height="496"/>
		</defs>
		<clipPath id="SVGID_00000052089982188647925740000007954266730789626776_">
			<use xlink:href="#SVGID_1_"  style="overflow:visible;"/>
		</clipPath>
		<g style="clip-path:url(#SVGID_00000052089982188647925740000007954266730789626776_);">
			<path vector-effect="non-scaling-stroke" shape-rendering="auto" class="st6" d="M-693.5,486V10"/>
		</g>
	</g>
</g>
<g>
	<g>
		<line vector-effect="non-scaling-stroke" shape-rendering="auto" class="st7" x1="-693.5" y1="0" x2="-693.5" y2="496"/>
		<g>
			<line vector-effect="non-scaling-stroke" shape-rendering="auto" class="st0" x1="-693.5" y1="441.6" x2="-40" y2="441.6"/>
			<text transform="matrix(1 0 0 1 -766.9894 458.8819)" class="st8 st9 st10">Honolulu</text>
		</g>
		<g>
			<line vector-effect="non-scaling-stroke" shape-rendering="auto" class="st0" x1="-693.5" y1="377.1" x2="-40" y2="377.1"/>
			<text transform="matrix(1 0 0 1 -761.3876 387.8828)" class="st8 st9 st10">Chicago</text>
		</g>
		<g>
			<line vector-effect="non-scaling-stroke" shape-rendering="auto" class="st0" x1="-693.5" y1="312.5" x2="-40" y2="312.5"/>
			<text transform="matrix(1 0 0 1 -803.8799 325.4712)" class="st8 st9 st10">San Francisco</text>
		</g>
		<g>
			<line vector-effect="non-scaling-stroke" shape-rendering="auto" class="st0" x1="-693.5" y1="248" x2="-40" y2="248"/>
			<text transform="matrix(1 0 0 1 -794.1534 254.97)" class="st8 st9 st10">Baton Rouge</text>
		</g>
		<g>
			<line vector-effect="non-scaling-stroke" shape-rendering="auto" class="st0" x1="-693.5" y1="183.5" x2="-40" y2="183.5"/>
			<text transform="matrix(1 0 0 1 -747.5594 189.565)" class="st8 st9 st10">Miami</text>
		</g>
		<g>
			<line vector-effect="non-scaling-stroke" shape-rendering="auto" class="st0" x1="-693.5" y1="118.9" x2="-40" y2="118.9"/>
			<text transform="matrix(1 0 0 1 -790.3721 123.881)" class="st8 st9 st10">Los Angeles</text>
		</g>
		<g>
			<line vector-effect="non-scaling-stroke" shape-rendering="auto" class="st0" x1="-693.5" y1="54.4" x2="-40" y2="54.4"/>
			<text transform="matrix(1 0 0 1 -772.2625 59.476)" class="st8 st12 st10">New York</text>
		</g>
	</g>
</g>
<g>
	<g>
		<path shape-rendering="auto" class="st0" d="M-693.5,488.4L-693.5,488.4L-693.5,488.4L-693.5,488.4v57.1l0,0l0,0l0,0V488.4z"/>
		<path shape-rendering="auto" class="st0" d="M-693.5,421.2L-693.5,421.2L-693.5,421.2L-693.5,421.2v57.1l0,0l0,0l0,0V421.2z"/>
		<path shape-rendering="auto" class="st0" d="M-693.5,353.9L-693.5,353.9L-693.5,353.9L-693.5,353.9v57.1l0,0l0,0l0,0V353.9z"/>
		<path shape-rendering="auto" class="st0" d="M-693.5,286.7L-693.5,286.7L-693.5,286.7L-693.5,286.7v57.1l0,0l0,0l0,0V286.7z"/>
		<path shape-rendering="auto" class="st0" d="M-693.5,219.4L-693.5,219.4L-693.5,219.4L-693.5,219.4v57.1l0,0l0,0l0,0V219.4z"/>
		<path shape-rendering="auto" class="st0" d="M-693.5,152.2L-693.5,152.2L-693.5,152.2L-693.5,152.2v57.1l0,0l0,0l0,0V152.2z"/>
		<path shape-rendering="auto" class="st0" d="M-693.5,84.9L-693.5,84.9L-693.5,84.9L-693.5,84.9v57.1l0,0l0,0l0,0V84.9z"/>
	</g>
</g>
<g>
	<g>
		<line vector-effect="non-scaling-stroke" shape-rendering="auto" class="st0" x1="126.5" y1="796" x2="380" y2="796"/>
		<g>
			<line vector-effect="non-scaling-stroke" shape-rendering="auto" class="st1" x1="126.5" y1="796" x2="126.5" y2="796"/>
			<text transform="matrix(1 0 0 1 122.5205 812.97)" class="st8 st9 st10">0</text>
		</g>
		<g>
			
				<line id="chart-group-2-axis-0-grid-1_00000114044993767838020610000008790004724630125214_" class="st2" x1="182.7" y1="796" x2="182.7" y2="0"/>
			<line vector-effect="non-scaling-stroke" shape-rendering="auto" class="st1" x1="182.7" y1="796" x2="182.7" y2="796"/>
			<text transform="matrix(1 0 0 1 173.9107 812.97)" class="st8 st9 st10">20</text>
		</g>
		<g>
			
				<line id="chart-group-2-axis-0-grid-2_00000171688039237238870700000002695230527581242551_" class="st2" x1="238.8" y1="796" x2="238.8" y2="0"/>
			<line vector-effect="non-scaling-stroke" shape-rendering="auto" class="st1" x1="238.8" y1="796" x2="238.8" y2="796"/>
			<text transform="matrix(1 0 0 1 230.0919 812.97)" class="st8 st9 st10">40</text>
		</g>
		<g>
			
				<line id="chart-group-2-axis-0-grid-3_00000180344376327306525820000009337085936865691783_" class="st2" x1="295" y1="796" x2="295" y2="0"/>
			<line vector-effect="non-scaling-stroke" shape-rendering="auto" class="st1" x1="295" y1="796" x2="295" y2="796"/>
			<text transform="matrix(1 0 0 1 286.2731 812.97)" class="st8 st9 st10">60</text>
		</g>
		<g>
			
				<line id="chart-group-2-axis-0-grid-4_00000036970869387596468690000013519915044298141347_" class="st2" x1="351.2" y1="796" x2="351.2" y2="0"/>
			<line vector-effect="non-scaling-stroke" shape-rendering="auto" class="st1" x1="351.2" y1="796" x2="351.2" y2="796"/>
			<text transform="matrix(1 0 0 1 322.1901 813.1305)" class="st8 st9 st10">80 hours</text>
		</g>
	</g>
</g>
<g>
	<g>
		<path shape-rendering="auto" class="st3" d="M126.5,686.9L126.5,686.9h152.1l0,0v91.4l0,0H126.5l0,0V686.9z"/>
		<path shape-rendering="auto" class="st3" d="M126.5,575.4L126.5,575.4h160.8l0,0v91.4l0,0H126.5l0,0V575.4z"/>
		<path shape-rendering="auto" class="st3" d="M126.5,463.8L126.5,463.8H299l0,0v91.4l0,0H126.5l0,0V463.8z"/>
		<path shape-rendering="auto" class="st3" d="M126.5,352.3L126.5,352.3h181.3l0,0v91.4l0,0H126.5l0,0V352.3z"/>
		<path shape-rendering="auto" class="st3" d="M126.5,240.7L126.5,240.7h187.2l0,0v91.4l0,0H126.5l0,0V240.7z"/>
		<path shape-rendering="auto" class="st3" d="M126.5,129.2L126.5,129.2h219.3l0,0v91.4l0,0H126.5l0,0V129.2z"/>
		<path shape-rendering="auto" class="st4" d="M126.5,17.7L126.5,17.7h233.9l0,0v91.4l0,0H126.5l0,0V17.7z"/>
	</g>
</g>
<g>
	<g>
		<defs>
			<rect id="SVGID_00000070100676961503225770000001080185490319064488_" x="126.5" y="0" width="253.5" height="796"/>
		</defs>
		<clipPath id="SVGID_00000141438922441755437590000001315468603041880709_">
			<use xlink:href="#SVGID_00000070100676961503225770000001080185490319064488_"  style="overflow:visible;"/>
		</clipPath>
		<g style="clip-path:url(#SVGID_00000141438922441755437590000001315468603041880709_);">
			<path vector-effect="non-scaling-stroke" shape-rendering="auto" class="st6" d="M126.5,786V10"/>
		</g>
	</g>
</g>
<g>
	<g>
		<line vector-effect="non-scaling-stroke" shape-rendering="auto" class="st7" x1="126.5" y1="0" x2="126.5" y2="796"/>
		<g>
			<line vector-effect="non-scaling-stroke" shape-rendering="auto" class="st0" x1="126.5" y1="724.2" x2="380" y2="724.2"/>
			<text transform="matrix(1 0 0 1 48.9184 735.3163)" class="st8 st9 st10">Honolulu</text>
		</g>
		<g>
			<line vector-effect="non-scaling-stroke" shape-rendering="auto" class="st0" x1="126.5" y1="615.5" x2="380" y2="615.5"/>
			<text transform="matrix(1 0 0 1 54.52 626.4411)" class="st8 st9 st10">Chicago</text>
		</g>
		<g>
			<line vector-effect="non-scaling-stroke" shape-rendering="auto" class="st0" x1="126.5" y1="506.7" x2="380" y2="506.7"/>
			<text transform="matrix(1 0 0 1 12.0278 518.9692)" class="st8 st9 st10">San Francisco</text>
		</g>
		<g>
			<line vector-effect="non-scaling-stroke" shape-rendering="auto" class="st0" x1="126.5" y1="398" x2="380" y2="398"/>
			<text transform="matrix(1 0 0 1 21.7542 408.97)" class="st8 st9 st10">Baton Rouge</text>
		</g>
		<g>
			<line vector-effect="non-scaling-stroke" shape-rendering="auto" class="st0" x1="126.5" y1="289.3" x2="380" y2="289.3"/>
			<text transform="matrix(1 0 0 1 68.3477 300.2344)" class="st8 st9 st10">Miami</text>
		</g>
		<g>
			<line vector-effect="non-scaling-stroke" shape-rendering="auto" class="st0" x1="126.5" y1="180.5" x2="380" y2="180.5"/>
			<text transform="matrix(1 0 0 1 25.5354 191.4989)" class="st8 st9 st10">Los Angeles</text>
		</g>
		<g>
			<line vector-effect="non-scaling-stroke" shape-rendering="auto" class="st0" x1="126.5" y1="71.8" x2="380" y2="71.8"/>
			<text transform="matrix(1 0 0 1 43.6445 82.7633)" class="st8 st12 st10">New York</text>
		</g>
	</g>
</g>
<g>
	<g>
		<path shape-rendering="auto" class="st0" d="M126.5,798.4L126.5,798.4L126.5,798.4L126.5,798.4v91.4l0,0l0,0l0,0V798.4z"/>
		<path shape-rendering="auto" class="st0" d="M126.5,686.9L126.5,686.9L126.5,686.9L126.5,686.9v91.4l0,0l0,0l0,0V686.9z"/>
		<path shape-rendering="auto" class="st0" d="M126.5,575.4L126.5,575.4L126.5,575.4L126.5,575.4v91.4l0,0l0,0l0,0V575.4z"/>
		<path shape-rendering="auto" class="st0" d="M126.5,463.8L126.5,463.8L126.5,463.8L126.5,463.8v91.4l0,0l0,0l0,0V463.8z"/>
		<path shape-rendering="auto" class="st0" d="M126.5,352.3L126.5,352.3L126.5,352.3L126.5,352.3v91.4l0,0l0,0l0,0V352.3z"/>
		<path shape-rendering="auto" class="st0" d="M126.5,240.7L126.5,240.7L126.5,240.7L126.5,240.7v91.4l0,0l0,0l0,0V240.7z"/>
		<path shape-rendering="auto" class="st0" d="M126.5,129.2L126.5,129.2L126.5,129.2L126.5,129.2v91.4l0,0l0,0l0,0V129.2z"/>
	</g>
</g>
</svg>
